<?xml version="1.0" encoding="UTF-8"?>
<svg version="1.1" xmlns="http://www.w3.org/2000/svg" width="123" height="41">
<path d="M0 0 C40.59 0 81.18 0 123 0 C123 13.53 123 27.06 123 41 C82.41 41 41.82 41 0 41 C0 27.47 0 13.94 0 0 Z " fill="#EDF5FD" transform="translate(0,0)"/>
<path d="M0 0 C0.10812003 2.75105422 0.18734945 5.49785087 0.25 8.25 C0.30027344 9.41595703 0.30027344 9.41595703 0.3515625 10.60546875 C0.45026295 16.37944529 0.45026295 16.37944529 -1.828125 19.51953125 C-4.76997667 21.5248582 -6.50696814 21.50940048 -10 21 C-12.375 19.625 -12.375 19.625 -14 18 C-14 17.34 -14 16.68 -14 16 C-11.03 16.33 -8.06 16.66 -5 17 C-4.67 16.01 -4.34 15.02 -4 14 C-5.8871875 14.12375 -5.8871875 14.12375 -7.8125 14.25 C-11.70928484 14.23620607 -11.70928484 14.23620607 -14 12.375 C-15.29618989 9.296549 -15.48288863 7.31123632 -15 4 C-11.83680841 -1.7238705 -5.71583426 -0.35477592 0 0 Z " fill="#140D0C" transform="translate(62,15)"/>
<path d="M0 0 C1.588125 -0.061875 3.17625 -0.12375 4.8125 -0.1875 C6.15248047 -0.23970703 6.15248047 -0.23970703 7.51953125 -0.29296875 C10 0 10 0 11.83984375 1.3515625 C13 3 13 3 12.75 5.5625 C12 8 12 8 11 10 C11.66 10 12.32 10 13 10 C13.125 12.875 13.125 12.875 13 16 C11 18 11 18 8.3984375 18.1953125 C5.59895833 18.13020833 2.79947917 18.06510417 0 18 C0 12.06 0 6.12 0 0 Z " fill="#201D1C" transform="translate(10,11)"/>
<path d="M0 0 C2.4375 1.625 2.4375 1.625 4 4 C4.5625 6.9375 4.5625 6.9375 4 10 C1.9375 12.9375 1.9375 12.9375 -1 15 C-4.85210127 15.06641554 -6.99848005 14.87229157 -9.9375 12.3125 C-11.33817538 9.26397123 -11.4842732 7.32073048 -11 4 C-8.05899778 -0.47032338 -5.13105401 -0.73300772 0 0 Z " fill="#14171E" transform="translate(42,15)"/>
<path d="M0 0 C1.32 0 2.64 0 4 0 C5.703125 1.96875 5.703125 1.96875 7.25 4.5 C8.03117187 5.75296875 8.03117187 5.75296875 8.828125 7.03125 C9.21484375 7.6809375 9.6015625 8.330625 10 9 C10.33 6.03 10.66 3.06 11 0 C12.32 0 13.64 0 15 0 C15 5.61 15 11.22 15 17 C10 16 10 16 8.41796875 14.37109375 C8.01191406 13.73300781 7.60585937 13.09492188 7.1875 12.4375 C6.76855469 11.79683594 6.34960938 11.15617187 5.91796875 10.49609375 C5.61503906 10.00238281 5.31210938 9.50867187 5 9 C4.67 11.64 4.34 14.28 4 17 C2.68 17 1.36 17 0 17 C0 11.39 0 5.78 0 0 Z " fill="#478DF7" transform="translate(65,12)"/>
<path d="M0 0 C3.5 0.25 3.5 0.25 5.5 2.25 C5.625 4.875 5.625 4.875 5.5 7.25 C3.19 7.58 0.88 7.91 -1.5 8.25 C0.48 8.25 2.46 8.25 4.5 8.25 C4.5 9.57 4.5 10.89 4.5 12.25 C-2.88533178 12.73428405 -2.88533178 12.73428405 -5.5625 10.625 C-6.81856608 7.44296594 -6.42070253 5.50787048 -5.5 2.25 C-3.5 0.25 -3.5 0.25 0 0 Z " fill="#508DF6" transform="translate(87.5,16.75)"/>
<path d="M0 0 C2.64 0 5.28 0 8 0 C8 0.99 8 1.98 8 3 C6.68 3.33 5.36 3.66 4 4 C6.475 4.99 6.475 4.99 9 6 C8.125 10.875 8.125 10.875 7 12 C4.66702567 12.04092937 2.33294775 12.04241723 0 12 C-0.33 10.68 -0.66 9.36 -1 8 C0.65 8 2.3 8 4 8 C2.35 7.01 0.7 6.02 -1 5 C-0.67 3.35 -0.34 1.7 0 0 Z " fill="#4C8BF6" transform="translate(96,17)"/>
<path d="M0 0 C1.32 0 2.64 0 4 0 C4 1.32 4 2.64 4 4 C4.99 4 5.98 4 7 4 C6.67 5.32 6.34 6.64 6 8 C5.34 8 4.68 8 4 8 C4 9.65 4 11.3 4 13 C4.66 13 5.32 13 6 13 C6 13.99 6 14.98 6 16 C4.33388095 16.042721 2.66617115 16.04063832 1 16 C0 15 0 15 -0.09765625 13.15234375 C-0.06510417 11.1015625 -0.03255208 9.05078125 0 7 C-0.66 7 -1.32 7 -2 7 C-2 6.01 -2 5.02 -2 4 C-1.34 4 -0.68 4 0 4 C0 2.68 0 1.36 0 0 Z " fill="#468BF7" transform="translate(108,13)"/>
<path d="M0 0 C2.5625 0.1875 2.5625 0.1875 4.5625 2.1875 C4.1875 5.3125 4.1875 5.3125 3.5625 8.1875 C1.25 8.875 1.25 8.875 -1.4375 9.1875 C-3.3125 8.0625 -3.3125 8.0625 -4.4375 6.1875 C-3.87661439 0.29820111 -3.87661439 0.29820111 0 0 Z " fill="#D7E1E6" transform="translate(54.4375,17.8125)"/>
<path d="M0 0 C2.5 0.25 2.5 0.25 4.5 2.25 C4.17028521 5.54714793 3.8773161 6.8726839 1.5 9.25 C-1.125 8.875 -1.125 8.875 -3.5 8.25 C-4.125 5.375 -4.125 5.375 -4.5 2.25 C-2.5 0.25 -2.5 0.25 0 0 Z " fill="#D7E2E7" transform="translate(38.5,17.75)"/>
<path d="M0 0 C0.66 0.33 1.32 0.66 2 1 C1.67 1.53625 1.34 2.0725 1 2.625 C-0.22699204 5.5391061 -0.14233286 7.86867708 0 11 C2.31 11 4.62 11 7 11 C7 11.99 7 12.98 7 14 C-0.40256709 14.48541424 -0.40256709 14.48541424 -3 12.375 C-4.29618989 9.296549 -4.48288863 7.31123632 -4 4 C-2 1.625 -2 1.625 0 0 Z " fill="#100D0C" transform="translate(51,15)"/>
<path d="M0 0 C0.99 0 1.98 0 3 0 C3 6.27 3 12.54 3 19 C2.01 19 1.02 19 0 19 C0 12.73 0 6.46 0 0 Z " fill="#070C26" transform="translate(26,10)"/>
<path d="M0 0 C2.97 0 5.94 0 9 0 C9 5.61 9 11.22 9 17 C8.67 17 8.34 17 8 17 C7.96261719 16.39671875 7.92523438 15.7934375 7.88671875 15.171875 C7.53074484 8.90964454 7.53074484 8.90964454 4 4 C1.40144267 3.1957792 1.40144267 3.1957792 -1 3 C-0.67 2.01 -0.34 1.02 0 0 Z " fill="#09122A" transform="translate(53,15)"/>
<path d="M0 0 C0.66 0 1.32 0 2 0 C2.66 0.99 3.32 1.98 4 3 C6.05003955 4.19232613 6.05003955 4.19232613 8 5 C5 6 5 6 2 5 C1.67 5.99 1.34 6.98 1 8 C1 7.34 1 6.68 1 6 C-1.64 6 -4.28 6 -7 6 C-7.33 5.34 -7.66 4.68 -8 4 C-5.36 4 -2.72 4 0 4 C0 2.68 0 1.36 0 0 Z " fill="#E0EAFD" transform="translate(93,20)"/>
<path d="M0 0 C0.33 0 0.66 0 1 0 C1 6.27 1 12.54 1 19 C-2 19 -2 19 -4 18 C-3.34 15.69 -2.68 13.38 -2 11 C-2.66 11 -3.32 11 -4 11 C-3.67 10.01 -3.34 9.02 -3 8 C-2.34 8.33 -1.68 8.66 -1 9 C-0.67 6.03 -0.34 3.06 0 0 Z " fill="#BEBCAB" transform="translate(25,10)"/>
<path d="M0 0 C0.33 0.99 0.66 1.98 1 3 C-1 5 -1 5 -3.375 5.3125 C-6 5 -6 5 -10 2 C-6.7 1.34 -3.4 0.68 0 0 Z " fill="#C2C8CA" transform="translate(58,28)"/>
<path d="M0 0 C1.98 0 3.96 0 6 0 C5.67 1.65 5.34 3.3 5 5 C3.35 5 1.7 5 0 5 C0 3.35 0 1.7 0 0 Z " fill="#DFE5E4" transform="translate(14,22)"/>
<path d="M0 0 C1.65 0 3.3 0 5 0 C5.33 1.32 5.66 2.64 6 4 C4.02 4.33 2.04 4.66 0 5 C0 3.35 0 1.7 0 0 Z " fill="#DEE1DE" transform="translate(14,14)"/>
<path d="M0 0 C0.33 0 0.66 0 1 0 C1 2.64 1 5.28 1 8 C0.01 8.495 0.01 8.495 -1 9 C-1 8.01 -1 7.02 -1 6 C-1.66 5.67 -2.32 5.34 -3 5 C-2.03114628 3.31503702 -1.03013277 1.64821244 0 0 Z " fill="#080300" transform="translate(60,22)"/>
<path d="M0 0 C0.66 0.33 1.32 0.66 2 1 C1.34 2.32 0.68 3.64 0 5 C-0.66 5 -1.32 5 -2 5 C-2.33 6.65 -2.66 8.3 -3 10 C-3.33 10 -3.66 10 -4 10 C-4.25 7.25 -4.25 7.25 -4 4 C-2 1.625 -2 1.625 0 0 Z " fill="#452A16" transform="translate(35,15)"/>
<path d="M0 0 C0.66 0.33 1.32 0.66 2 1 C1.34 2.32 0.68 3.64 0 5 C-0.66 5 -1.32 5 -2 5 C-2.33 6.65 -2.66 8.3 -3 10 C-3.33 10 -3.66 10 -4 10 C-4.25 7.25 -4.25 7.25 -4 4 C-2 1.625 -2 1.625 0 0 Z " fill="#442915" transform="translate(51,15)"/>
</svg>
